<?xml version="1.0" standalone="no"?>
<!DOCTYPE svg PUBLIC "-//W3C//DTD SVG 20010904//EN"
 "http://www.w3.org/TR/2001/REC-SVG-20010904/DTD/svg10.dtd">
<svg version="1.0" xmlns="http://www.w3.org/2000/svg"
 width="300.000000pt" height="200.000000pt" viewBox="0 0 300.000000 200.000000"
 preserveAspectRatio="xMidYMid meet">

<g transform="translate(0.000000,200.000000) scale(0.100000,-0.100000)"
fill="#000000" stroke="none">
<path d="M216 1378 c-24 -33 -24 -603 0 -636 14 -21 22 -22 155 -22 l139 0 0
-29 c0 -42 -10 -61 -31 -61 -10 0 -19 -4 -19 -10 0 -6 58 -10 155 -10 97 0
155 4 155 10 0 6 -9 10 -19 10 -21 0 -31 19 -31 61 l0 29 139 0 c133 0 141 1
155 22 24 33 24 603 0 636 l-15 22 -384 0 -384 0 -15 -22z m772 -10 c7 -7 12
-27 12 -45 l0 -33 -385 0 -385 0 0 33 c0 18 5 38 12 45 17 17 729 17 746 0z
m12 -308 l0 -200 -385 0 -385 0 0 200 0 200 385 0 385 0 0 -200z m0 -269 c0
-26 -5 -41 -16 -45 -20 -8 -718 -8 -738 0 -11 4 -16 19 -16 45 l0 39 385 0
385 0 0 -39z m-306 -87 c3 -9 6 -29 6 -45 l0 -29 -85 0 -85 0 0 29 c0 57 6 61
85 61 57 0 74 -3 79 -16z"/>
<path d="M260 1330 c0 -5 5 -10 10 -10 6 0 10 5 10 10 0 6 -4 10 -10 10 -5 0
-10 -4 -10 -10z"/>
<path d="M320 1330 c0 -5 5 -10 10 -10 6 0 10 5 10 10 0 6 -4 10 -10 10 -5 0
-10 -4 -10 -10z"/>
<path d="M370 1330 c0 -5 7 -10 15 -10 8 0 15 5 15 10 0 6 -7 10 -15 10 -8 0
-15 -4 -15 -10z"/>
<path d="M362 1182 c-15 -48 -15 -52 -2 -52 20 0 42 81 24 87 -6 2 -16 -14
-22 -35z"/>
<path d="M286 1191 c-15 -17 -15 -19 4 -36 11 -10 20 -16 21 -14 10 63 2 80
-25 50z"/>
<path d="M425 1201 c-3 -5 -1 -13 5 -16 8 -5 8 -11 0 -20 -16 -20 8 -31 27
-12 12 11 13 19 4 36 -12 22 -26 27 -36 12z"/>
<path d="M270 1090 c0 -5 7 -10 15 -10 8 0 15 5 15 10 0 6 -7 10 -15 10 -8 0
-15 -4 -15 -10z"/>
<path d="M330 1090 c0 -6 42 -10 105 -10 63 0 105 4 105 10 0 6 -42 10 -105
10 -63 0 -105 -4 -105 -10z"/>
<path d="M570 1090 c0 -5 7 -10 15 -10 8 0 15 5 15 10 0 6 -7 10 -15 10 -8 0
-15 -4 -15 -10z"/>
<path d="M270 1030 c0 -5 7 -10 15 -10 8 0 15 5 15 10 0 6 -7 10 -15 10 -8 0
-15 -4 -15 -10z"/>
<path d="M330 1030 c0 -6 68 -10 185 -10 117 0 185 4 185 10 0 6 -68 10 -185
10 -117 0 -185 -4 -185 -10z"/>
<path d="M730 1030 c0 -5 18 -10 40 -10 22 0 40 5 40 10 0 6 -18 10 -40 10
-22 0 -40 -4 -40 -10z"/>
<path d="M277 983 c-12 -11 -8 -23 8 -23 8 0 15 7 15 15 0 16 -12 20 -23 8z"/>
<path d="M330 975 c0 -13 22 -15 135 -15 113 0 135 2 135 15 0 13 -22 15 -135
15 -113 0 -135 -2 -135 -15z"/>
<path d="M272 918 c6 -18 28 -21 28 -4 0 9 -7 16 -16 16 -9 0 -14 -5 -12 -12z"/>
<path d="M330 915 c0 -13 29 -15 205 -15 176 0 205 2 205 15 0 13 -29 15 -205
15 -176 0 -205 -2 -205 -15z"/>
<path d="M772 918 c6 -18 28 -21 28 -4 0 9 -7 16 -16 16 -9 0 -14 -5 -12 -12z"/>
<path d="M830 914 c0 -17 22 -14 28 4 2 7 -3 12 -12 12 -9 0 -16 -7 -16 -16z"/>
<path d="M600 790 c0 -5 7 -10 15 -10 8 0 15 5 15 10 0 6 -7 10 -15 10 -8 0
-15 -4 -15 -10z"/>
<path d="M1670 1221 c0 -92 9 -127 25 -101 4 7 12 7 26 0 45 -24 88 36 69 95
-12 36 -42 50 -72 34 -16 -9 -18 -5 -18 31 0 29 -4 40 -15 40 -12 0 -15 -18
-15 -99z m90 -10 c14 -27 -4 -74 -26 -69 -28 5 -39 33 -26 62 14 31 37 34 52
7z"/>
<path d="M1223 1297 c3 -8 15 -48 27 -88 12 -41 28 -80 36 -88 12 -13 16 -10
29 23 9 20 18 50 22 67 9 48 19 42 39 -24 17 -60 30 -80 45 -72 7 5 59 166 59
184 0 6 -6 11 -14 11 -9 0 -20 -25 -31 -65 -10 -36 -21 -62 -25 -58 -3 4 -14
34 -24 66 -23 77 -42 73 -71 -13 l-22 -65 -20 65 c-14 44 -26 66 -38 69 -12 2
-16 -2 -12 -12z"/>
<path d="M1835 1238 c-4 -41 -5 -84 -3 -96 6 -43 23 -27 28 28 l6 55 17 -37
c9 -21 17 -41 17 -46 0 -5 7 -15 15 -22 13 -11 19 -4 42 46 l28 59 3 -50 c2
-27 7 -54 12 -59 17 -17 22 23 15 110 -8 104 -26 110 -60 19 -13 -33 -27 -58
-31 -56 -5 2 -18 29 -30 60 -31 83 -51 80 -59 -11z"/>
<path d="M2350 1281 c0 -11 -8 -25 -17 -31 -17 -10 -17 -10 0 -20 12 -8 17
-24 17 -55 0 -47 22 -71 54 -59 23 9 20 24 -4 24 -17 0 -20 7 -20 45 0 33 4
45 15 45 8 0 15 5 15 10 0 6 -6 10 -14 10 -8 0 -16 10 -18 22 -4 28 -28 36
-28 9z"/>
<path d="M1550 1253 c-25 -9 -40 -35 -40 -68 0 -50 58 -88 100 -65 31 16 24
29 -13 23 -23 -3 -37 0 -46 11 -12 14 -9 16 27 16 47 0 63 16 51 48 -6 17 -50
46 -62 41 -1 0 -9 -3 -17 -6z m48 -40 c2 -9 -7 -13 -28 -13 -28 0 -31 2 -20
15 15 18 41 16 48 -2z"/>
<path d="M2083 1250 c-13 -5 -23 -17 -23 -26 0 -11 5 -14 18 -9 41 17 52 17
52 1 0 -10 -8 -16 -21 -16 -34 0 -59 -19 -59 -45 0 -32 32 -50 61 -35 15 9 24
8 35 -1 8 -6 15 -8 15 -3 4 25 -4 120 -9 125 -14 13 -48 17 -69 9z m42 -91 c0
-8 -10 -15 -22 -17 -25 -4 -33 22 -10 31 18 8 32 2 32 -14z"/>
<path d="M2228 1253 c-29 -7 -34 -44 -8 -65 12 -10 28 -18 36 -18 8 0 14 -7
14 -16 0 -13 -7 -15 -35 -10 -41 8 -48 -9 -10 -24 38 -14 75 3 75 35 0 20 -8
29 -35 41 -42 17 -37 39 6 30 21 -4 29 -2 29 8 0 12 -34 28 -50 25 -3 -1 -13
-3 -22 -6z"/>
<path d="M2480 1253 c-35 -12 -53 -76 -32 -110 13 -21 60 -33 87 -23 35 13 32
31 -5 24 -19 -4 -36 -1 -47 7 -14 12 -11 15 28 19 38 4 44 8 47 31 4 36 -40
65 -78 52z m48 -40 c2 -9 -7 -13 -27 -13 -30 0 -39 9 -24 24 11 10 46 3 51
-11z"/>
<path d="M2605 1248 c-9 -24 -1 -128 10 -131 6 -1 11 22 13 52 3 43 7 54 23
58 20 6 25 18 10 28 -5 3 -13 1 -16 -5 -5 -8 -11 -7 -21 1 -11 9 -15 8 -19 -3z"/>
<path d="M1230 946 c0 -88 13 -132 26 -89 19 66 47 85 68 48 31 -58 38 -67 47
-58 11 11 -12 73 -37 97 -15 15 -14 19 10 51 30 39 31 45 12 45 -8 0 -32 -21
-55 -47 l-40 -48 -1 48 c0 35 -4 47 -15 47 -12 0 -15 -17 -15 -94z"/>
<path d="M1412 945 c3 -97 20 -135 26 -57 l3 43 42 -3 c40 -3 42 -4 47 -41 3
-21 10 -38 15 -37 15 0 13 182 -2 187 -8 3 -13 -11 -15 -39 -3 -43 -3 -43 -45
-46 l-43 -3 0 45 c0 35 -4 46 -15 46 -13 0 -15 -15 -13 -95z"/>
</g>
</svg>
